<svg width="24" height="24" viewBox="0 0 24 24" fill="none" xmlns="http://www.w3.org/2000/svg">
<path d="M19.1998 14.4001H14.3998C13.5161 14.4001 12.7998 15.1165 12.7998 16.0001V20.8001C12.7998 21.6838 13.5161 22.4001 14.3998 22.4001H19.1998C20.0835 22.4001 20.7998 21.6838 20.7998 20.8001V16.0001C20.7998 15.1165 20.0835 14.4001 19.1998 14.4001Z" stroke="#B1B5C4" stroke-width="1.5"/>
<path d="M7.99961 14.4001H3.19961C2.31595 14.4001 1.59961 15.1165 1.59961 16.0001V20.8001C1.59961 21.6838 2.31595 22.4001 3.19961 22.4001H7.99961C8.88327 22.4001 9.59961 21.6838 9.59961 20.8001V16.0001C9.59961 15.1165 8.88327 14.4001 7.99961 14.4001Z" stroke="#B1B5C4" stroke-width="1.5"/>
<path d="M7.99961 2.40015H3.19961C2.31595 2.40015 1.59961 3.11649 1.59961 4.00015V8.80015C1.59961 9.6838 2.31595 10.4001 3.19961 10.4001H7.99961C8.88327 10.4001 9.59961 9.6838 9.59961 8.80015V4.00015C9.59961 3.11649 8.88327 2.40015 7.99961 2.40015Z" stroke="#B1B5C4" stroke-width="1.5"/>
<path d="M19.1998 2.40015H14.3998C13.5161 2.40015 12.7998 3.11649 12.7998 4.00015V8.80015C12.7998 9.6838 13.5161 10.4001 14.3998 10.4001H19.1998C20.0835 10.4001 20.7998 9.6838 20.7998 8.80015V4.00015C20.7998 3.11649 20.0835 2.40015 19.1998 2.40015Z" stroke="#B1B5C4" stroke-width="1.5"/>
</svg>
