<svg width="22" height="24" viewBox="0 0 22 24" fill="none" xmlns="http://www.w3.org/2000/svg">
<path d="M4.86475 23.2001C4.38996 23.1996 3.9219 23.0882 3.49805 22.8743C3.07419 22.6603 2.70632 22.3497 2.42395 21.968C2.142 21.5858 1.95354 21.1432 1.87366 20.6751C1.79377 20.2069 1.82471 19.726 1.96397 19.2719L2.56155 17.3321C2.81944 16.4813 3.34493 15.7362 4.05994 15.2079C4.77494 14.6795 5.64131 14.396 6.53035 14.3993H11.5456C11.6008 14.3993 11.6527 14.4102 11.7055 14.4118C11.7287 14.4118 11.748 14.3993 11.7696 14.3993H19.104C19.2946 14.3993 19.4827 14.3545 19.653 14.2688C19.8233 14.1831 19.9712 14.0587 20.0848 13.9055C20.1981 13.7521 20.2738 13.5748 20.3058 13.3868C20.3377 13.1988 20.3251 13.0057 20.2688 12.8235L19.7607 11.1727C19.6226 10.7163 19.3408 10.317 18.9572 10.0336C18.5736 9.75026 18.1088 9.59803 17.632 9.60005H14.0432C13.831 9.60005 13.6275 9.5157 13.4775 9.36567C13.3274 9.21565 13.2432 9.01222 13.2432 8.80005C13.2432 8.58788 13.3274 8.38445 13.4775 8.23442C13.6275 8.0844 13.831 8.00005 14.0432 8.00005H17.632C18.4511 7.99678 19.2495 8.2576 19.9088 8.7438C20.568 9.23 21.0531 9.91571 21.2919 10.6993L21.7984 12.3524C21.9302 12.7736 21.9602 13.2196 21.8861 13.6547C21.812 14.0899 21.6358 14.5017 21.372 14.8555C21.111 15.2115 20.7696 15.5003 20.3756 15.6993C19.9816 15.8982 19.5462 16.0014 19.1048 16.0001H14.8136C15.1267 16.3974 15.3647 16.8485 15.5159 17.3313L16.1136 19.2711C16.2528 19.7252 16.2837 20.2061 16.2039 20.6743C16.124 21.1425 15.9355 21.585 15.6536 21.9672C15.371 22.3491 15.0029 22.6595 14.5788 22.8735C14.1546 23.0874 13.6862 23.199 13.2112 23.1993L4.86475 23.2001ZM4.08955 17.8032L3.49194 19.743C3.42593 19.9576 3.41123 20.185 3.44902 20.4063C3.48682 20.6276 3.57606 20.8375 3.70955 21.018C3.84325 21.1986 4.01735 21.3449 4.21794 21.4461C4.41854 21.5474 4.64004 21.6005 4.86475 21.6008H13.2104C13.4353 21.6016 13.6572 21.5491 13.8579 21.4477C14.0587 21.3463 14.2327 21.1995 14.3656 21.018C14.4999 20.8379 14.5897 20.6278 14.6275 20.4063C14.6653 20.1848 14.6501 19.9575 14.5832 19.743L13.9855 17.8032C13.8272 17.2799 13.504 16.8217 13.0642 16.4969C12.6244 16.1722 12.0915 15.9982 11.5448 16.0008H6.51755C5.97303 16.001 5.44299 16.1763 5.00576 16.5008C4.56854 16.8254 4.24731 17.282 4.08955 17.8032ZM5.67275 9.60005C5.67275 8.75136 6.00989 7.93767 6.61001 7.33755C7.21013 6.73743 8.02406 6.40005 8.87276 6.40005C9.72145 6.40005 10.5354 6.73743 11.1355 7.33755C11.7356 7.93767 12.0728 8.75136 12.0728 9.60005C12.0728 10.4487 11.7356 11.2624 11.1355 11.8625C10.5354 12.4627 9.72145 12.8 8.87276 12.8C8.02406 12.8 7.21013 12.4627 6.61001 11.8625C6.00989 11.2624 5.67275 10.4487 5.67275 9.60005ZM7.27275 9.60005C7.27275 10.0244 7.44132 10.4312 7.74138 10.7313C8.04144 11.0314 8.44841 11.2 8.87276 11.2C9.2971 11.2 9.70407 11.0314 10.0041 10.7313C10.3042 10.4312 10.4728 10.0244 10.4728 9.60005C10.4728 9.1757 10.3042 8.76886 10.0041 8.4688C9.70407 8.16874 9.2971 8.00005 8.87276 8.00005C8.44841 8.00005 8.04144 8.16874 7.74138 8.4688C7.44132 8.76886 7.27275 9.1757 7.27275 9.60005ZM2.47275 6.40005V4.80005H0.872754C0.660581 4.80005 0.457109 4.7157 0.30708 4.56567C0.157051 4.41565 0.0727539 4.21222 0.0727539 4.00005C0.0727539 3.78788 0.157051 3.58445 0.30708 3.43442C0.457109 3.28439 0.660581 3.20005 0.872754 3.20005H2.47275V1.60005C2.47275 1.38788 2.55705 1.18445 2.70708 1.03442C2.85711 0.884395 3.06058 0.800049 3.27275 0.800049C3.48493 0.800049 3.6884 0.884395 3.83843 1.03442C3.98846 1.18445 4.07275 1.38788 4.07275 1.60005V3.20005H5.67275C5.88493 3.20005 6.0884 3.28439 6.23843 3.43442C6.38846 3.58445 6.47275 3.78788 6.47275 4.00005C6.47275 4.21222 6.38846 4.41565 6.23843 4.56567C6.0884 4.7157 5.88493 4.80005 5.67275 4.80005H4.07275V6.40005C4.07275 6.61222 3.98846 6.81565 3.83843 6.96567C3.6884 7.1157 3.48493 7.20005 3.27275 7.20005C3.06058 7.20005 2.85711 7.1157 2.70708 6.96567C2.55705 6.81565 2.47275 6.61222 2.47275 6.40005ZM12.8728 3.60005C12.8728 2.85744 13.1677 2.14546 13.6928 1.62036C14.2179 1.09526 14.9301 0.800049 15.6728 0.800049C16.4154 0.800049 17.1276 1.09526 17.6527 1.62036C18.1778 2.14546 18.4728 2.85744 18.4728 3.60005C18.4728 4.34266 18.1778 5.05464 17.6527 5.57974C17.1276 6.10484 16.4154 6.40005 15.6728 6.40005C14.9301 6.40005 14.2179 6.10484 13.6928 5.57974C13.1677 5.05464 12.8728 4.34266 12.8728 3.60005ZM14.4728 3.60005C14.4728 3.91831 14.5992 4.22344 14.8242 4.44849C15.0493 4.67353 15.3545 4.80005 15.6728 4.80005C15.991 4.80005 16.2962 4.67353 16.5213 4.44849C16.7463 4.22344 16.8728 3.91831 16.8728 3.60005C16.8728 3.28179 16.7463 2.97666 16.5213 2.75161C16.2962 2.52657 15.991 2.40005 15.6728 2.40005C15.3545 2.40005 15.0493 2.52657 14.8242 2.75161C14.5992 2.97666 14.4728 3.28179 14.4728 3.60005Z" fill="#B1B5C4"/>
</svg>
