<svg width="24" height="24" viewBox="0 0 24 24" fill="none" xmlns="http://www.w3.org/2000/svg">
<g clip-path="url(#clip0_3200_29672)">
<path fill-rule="evenodd" clip-rule="evenodd" d="M7.50056 1.55037C7.89109 1.94089 7.89109 2.57406 7.50056 2.96458L3.96503 6.50012L7.50056 10.0356C7.89109 10.4262 7.89109 11.0593 7.50056 11.4499C7.11004 11.8404 6.47687 11.8404 6.08635 11.4499L1.84371 7.20722C1.45319 6.8167 1.45319 6.18353 1.84371 5.79301L6.08635 1.55037C6.47687 1.15984 7.11004 1.15984 7.50056 1.55037Z" fill="#B1B5C4"/>
<path fill-rule="evenodd" clip-rule="evenodd" d="M23.4502 6.50012C23.4502 7.0524 23.0024 7.50012 22.4502 7.50012L4.50098 7.50019C3.94869 7.50019 3.50098 7.05248 3.50098 6.50019C3.50098 5.94791 3.94869 5.50019 4.50098 5.50019L22.4502 5.50012C23.0024 5.50012 23.4502 5.94783 23.4502 6.50012Z" fill="#B1B5C4"/>
<path fill-rule="evenodd" clip-rule="evenodd" d="M16.5004 12.5504C16.8909 12.1598 17.5241 12.1598 17.9146 12.5504L22.1573 16.793C22.5478 17.1835 22.5478 17.8167 22.1573 18.2072L17.9146 22.4499C17.5241 22.8404 16.8909 22.8404 16.5004 22.4499C16.1099 22.0593 16.1099 21.4262 16.5004 21.0356L20.0359 17.5001L16.5004 13.9646C16.1099 13.5741 16.1099 12.9409 16.5004 12.5504Z" fill="#B1B5C4"/>
<path fill-rule="evenodd" clip-rule="evenodd" d="M21 17.5002C21 18.0525 20.5523 18.5002 20 18.5002L1.55084 18.5001C0.998552 18.5001 0.550837 18.0524 0.550837 17.5001C0.550837 16.9478 0.998552 16.5001 1.55084 16.5001L20 16.5002C20.5523 16.5002 21 16.9479 21 17.5002Z" fill="#B1B5C4"/>
</g>
<defs>
<clipPath id="clip0_3200_29672">
<rect width="24" height="24" fill="white"/>
</clipPath>
</defs>
</svg>
