<svg width="24" height="24" viewBox="0 0 24 24" fill="none" xmlns="http://www.w3.org/2000/svg">
<path d="M24 7.51173C24 6.68336 23.3284 6.01173 22.5 6.01173H19.9395C20.6021 5.35811 21.0262 4.50126 21.0262 3.44598C21.0262 2.14661 20.28 0.735107 18.1852 0.735107C15.429 0.735107 13.1265 3.66986 12.0446 5.31498C10.962 3.67023 8.589 0.735482 5.83313 0.735482C3.73838 0.735482 2.99213 2.14698 2.99213 3.44636C2.99213 4.50123 3.42788 5.35848 4.104 6.01211H1.5C0.671625 6.01211 0 6.68373 0 7.51211V12.002H1.51312V21.7651C1.51312 22.5935 2.18473 23.2651 3.01312 23.2651H21.0056C21.834 23.2651 22.5056 22.5935 22.5056 21.7651V12.0016H24V7.51173H24ZM18.1852 2.23548C19.1126 2.23548 19.5262 2.62513 19.5262 3.44638C19.5262 5.11251 17.6666 6.01136 15.9176 6.01136H13.3785C14.4442 4.42848 16.32 2.23548 18.1852 2.23548ZM5.8331 2.23551C7.69873 2.23551 9.64533 4.42851 10.7111 6.01101H8.1712C6.4222 6.01101 4.49208 5.08888 4.49208 3.42276C4.49208 2.60188 4.9057 2.23551 5.8331 2.23551ZM22.5 10.5016H12.75V7.51173H22.5V10.5016ZM1.49998 7.51173H11.25V10.5016H1.49998V7.51173ZM3.0131 12.0016H11.25V21.7647H3.0131V12.0016ZM21.006 21.7647H12.75V12.0016H21.006V21.7647Z" fill="#B1B5C4"/>
</svg>
