<svg width="20" height="16" viewBox="0 0 20 16" fill="none" xmlns="http://www.w3.org/2000/svg">
<path d="M3.99024 0.929138C4.13069 1.06976 4.20958 1.26039 4.20958 1.45914C4.20958 1.65789 4.13069 1.84851 3.99024 1.98914C3.20091 2.77844 2.57478 3.71548 2.1476 4.74677C1.72042 5.77805 1.50055 6.88338 1.50055 7.99964C1.50055 9.1159 1.72042 10.2212 2.1476 11.2525C2.57478 12.2838 3.20091 13.2208 3.99024 14.0101C4.12679 14.1517 4.2023 14.3411 4.2005 14.5378C4.1987 14.7344 4.11973 14.9225 3.98061 15.0615C3.84149 15.2005 3.65334 15.2793 3.45669 15.2809C3.26004 15.2825 3.07063 15.2068 2.92924 15.0701C-0.975762 11.1651 -0.975762 4.83414 2.92924 0.929138C3.06986 0.788688 3.26049 0.709798 3.45924 0.709798C3.65799 0.709798 3.84861 0.788688 3.98924 0.929138H3.99024ZM17.0712 0.929138C20.9762 4.83414 20.9762 11.1651 17.0712 15.0711C16.9291 15.2036 16.741 15.2757 16.5467 15.2723C16.3524 15.2689 16.167 15.1902 16.0296 15.0528C15.8922 14.9153 15.8135 14.73 15.8101 14.5357C15.8066 14.3414 15.8788 14.1533 16.0112 14.0111C16.8007 13.2218 17.427 12.2847 17.8542 11.2533C18.2815 10.222 18.5014 9.11652 18.5014 8.00014C18.5014 6.88376 18.2815 5.77832 17.8542 4.74694C17.427 3.71557 16.8007 2.77846 16.0112 1.98914C15.9376 1.92048 15.8784 1.83768 15.8375 1.74568C15.7965 1.65368 15.7744 1.55436 15.7726 1.45366C15.7709 1.35296 15.7894 1.25293 15.8271 1.15954C15.8648 1.06615 15.921 0.981319 15.9922 0.9101C16.0634 0.838881 16.1483 0.782737 16.2416 0.745016C16.335 0.707295 16.4351 0.68877 16.5358 0.690546C16.6365 0.692323 16.7358 0.714365 16.8278 0.755357C16.9198 0.796349 17.0026 0.855451 17.0712 0.929138ZM6.81824 3.75714C6.95869 3.89776 7.03758 4.08839 7.03758 4.28714C7.03758 4.48589 6.95869 4.67651 6.81824 4.81714C6.40022 5.23502 6.06862 5.73116 5.84238 6.27722C5.61614 6.82328 5.4997 7.40857 5.4997 7.99964C5.4997 8.59071 5.61614 9.17599 5.84238 9.72205C6.06862 10.2681 6.40022 10.7643 6.81824 11.1821C6.95072 11.3243 7.02284 11.5124 7.01941 11.7067C7.01599 11.901 6.93727 12.0863 6.79986 12.2238C6.66245 12.3612 6.47706 12.4399 6.28276 12.4433C6.08846 12.4467 5.90041 12.3746 5.75824 12.2421C4.63311 11.1169 4.00102 9.59087 4.00102 7.99964C4.00102 6.40841 4.63311 4.88235 5.75824 3.75714C5.89886 3.61669 6.08949 3.5378 6.28824 3.5378C6.48699 3.5378 6.67761 3.61669 6.81824 3.75714ZM14.2432 3.75714C15.3684 4.88235 16.0005 6.40841 16.0005 7.99964C16.0005 9.59087 15.3684 11.1169 14.2432 12.2421C14.1741 12.3138 14.0914 12.371 13.9999 12.4103C13.9084 12.4497 13.81 12.4704 13.7104 12.4713C13.6108 12.4722 13.512 12.4533 13.4199 12.4156C13.3277 12.378 13.2439 12.3223 13.1735 12.2519C13.103 12.1815 13.0473 12.0978 13.0095 12.0057C12.9718 11.9135 12.9527 11.8148 12.9536 11.7152C12.9544 11.6156 12.975 11.5172 13.0143 11.4257C13.0535 11.3341 13.1106 11.2514 13.1822 11.1821C13.6001 10.7643 13.9316 10.2682 14.1577 9.72223C14.3839 9.17626 14.5003 8.59109 14.5003 8.00014C14.5003 7.40919 14.3839 6.82402 14.1577 6.27805C13.9316 5.73208 13.6001 5.236 13.1822 4.81814C13.0498 4.67596 12.9776 4.48792 12.9811 4.29362C12.9845 4.09931 13.0632 3.91393 13.2006 3.77652C13.338 3.6391 13.5234 3.56039 13.7177 3.55696C13.912 3.55354 14.1001 3.62566 14.2422 3.75814L14.2432 3.75714ZM10.0002 6.50014C10.3981 6.50014 10.7796 6.65817 11.0609 6.93948C11.3422 7.22078 11.5002 7.60231 11.5002 8.00014C11.5002 8.39796 11.3422 8.77949 11.0609 9.0608C10.7796 9.3421 10.3981 9.50014 10.0002 9.50014C9.60241 9.50014 9.22088 9.3421 8.93958 9.0608C8.65827 8.77949 8.50024 8.39796 8.50024 8.00014C8.50024 7.60231 8.65827 7.22078 8.93958 6.93948C9.22088 6.65817 9.60241 6.50014 10.0002 6.50014Z" fill="#B1B5C4"/>
</svg>
