<svg width="20" height="20" viewBox="0 0 20 20" fill="none" xmlns="http://www.w3.org/2000/svg">
<path d="M16.1012 19.914C12.0252 19.914 7.94923 19.9268 3.87243 19.914C2.87317 19.8824 1.92384 19.4698 1.21907 18.7607C0.514291 18.0517 0.107478 17.0998 0.0820317 16.1004V3.89479C0.0949892 3.75457 0.14473 3.62025 0.226227 3.50541C0.307724 3.39057 0.418089 3.29928 0.546172 3.24076C0.674254 3.18224 0.815515 3.15856 0.955679 3.17212C1.09584 3.18568 1.22994 3.236 1.34443 3.31799C1.47321 3.43068 1.56099 3.58289 1.59403 3.75079C1.60315 3.79825 1.60771 3.84647 1.60763 3.89479C1.60763 7.97479 1.56923 12.0548 1.60763 16.1284C1.62965 16.7231 1.87666 17.2872 2.29873 17.7068C2.72079 18.1263 3.28641 18.3699 3.88123 18.3884C6.93803 18.398 9.99323 18.3884 13.05 18.3884C13.0356 18.37 13.022 18.3508 13.0084 18.3308C12.5431 17.6799 12.2915 16.9005 12.2884 16.1004V1.60599H0.844432C0.844432 1.60599 0.109232 1.43799 0.0820317 0.87959C0.0818043 0.673773 0.160909 0.475787 0.3029 0.326794C0.444891 0.1778 0.638843 0.0892631 0.844432 0.0795898H13.0492C13.2486 0.0885599 13.4375 0.17174 13.5787 0.312799C13.7199 0.453859 13.8033 0.642608 13.8124 0.84199C13.8124 5.93719 13.7652 11.0332 13.8124 16.1268C13.8352 16.7155 14.0779 17.2743 14.4926 17.6927C14.9074 18.1111 15.464 18.3588 16.0524 18.3868C16.1124 18.3796 16.094 18.3868 16.2316 18.3868C16.8107 18.3391 17.3516 18.0787 17.7501 17.6557C18.1485 17.2328 18.3762 16.6773 18.3892 16.0964V9.23479H16.1004C15.8935 9.21135 15.6985 9.12635 15.5404 8.99079C15.4548 8.88591 15.3976 8.76081 15.3741 8.62746C15.3507 8.49412 15.3619 8.35699 15.4066 8.2292C15.4513 8.10141 15.528 7.98723 15.6295 7.89758C15.7309 7.80794 15.8537 7.74582 15.986 7.71719C16.0236 7.7115 16.0616 7.70882 16.0996 7.70919H19.1524H19.2092C19.305 7.71171 19.3987 7.73694 19.4828 7.78279C19.6096 7.84838 19.7165 7.9467 19.7925 8.06753C19.8684 8.18837 19.9107 8.32732 19.9148 8.46999C19.9148 11.0204 19.9228 13.5716 19.9148 16.1228C19.8808 17.121 19.4675 18.0687 18.7591 18.7728C18.0507 19.4769 17.1005 19.8845 16.102 19.9124L16.1012 19.914ZM8.47243 15.3364H5.42123C5.2232 15.33 5.03542 15.2468 4.89761 15.1044C4.75979 14.9621 4.68274 14.7717 4.68274 14.5736C4.68274 14.3755 4.75979 14.1851 4.89761 14.0427C5.03542 13.9004 5.2232 13.8172 5.42123 13.8108H8.50283C8.69943 13.8228 8.88376 13.9104 9.01728 14.0552C9.1508 14.2 9.22316 14.3908 9.21923 14.5878C9.2153 14.7847 9.1354 14.9725 8.99621 15.1119C8.85703 15.2512 8.66935 15.3314 8.47243 15.3356V15.3364ZM9.99803 12.2852H3.89563C3.78057 12.2894 3.66641 12.2634 3.56443 12.21C3.45164 12.1463 3.35615 12.056 3.2863 11.9469C3.21645 11.8378 3.17436 11.7133 3.16371 11.5842C3.15305 11.4551 3.17416 11.3254 3.22519 11.2063C3.27621 11.0873 3.3556 10.9825 3.45643 10.9012C3.54978 10.8346 3.65699 10.79 3.77003 10.7708C3.81217 10.7647 3.85465 10.7612 3.89723 10.7604H10.0004H10.0428C10.1817 10.777 10.3137 10.8304 10.4252 10.9149C10.5367 10.9994 10.6237 11.1121 10.6772 11.2414C10.7307 11.3706 10.7488 11.5118 10.7297 11.6504C10.7106 11.789 10.6549 11.92 10.5684 12.03C10.4999 12.1137 10.4128 12.1804 10.3141 12.2247C10.2154 12.269 10.1077 12.2897 9.99963 12.2852H9.99803ZM9.99803 9.23399H3.89563C3.75261 9.22458 3.61487 9.17635 3.49723 9.09448C3.37959 9.01261 3.2865 8.9002 3.22799 8.76936C3.16949 8.63852 3.14777 8.4942 3.16519 8.35194C3.1826 8.20967 3.23849 8.07485 3.32683 7.96199C3.39535 7.8783 3.48244 7.81174 3.58117 7.76758C3.67991 7.72342 3.78757 7.70288 3.89563 7.70759H10.0412C10.1793 7.72602 10.31 7.7804 10.4204 7.8653C10.5308 7.9502 10.6169 8.06262 10.6702 8.19131C10.7234 8.31999 10.7419 8.4604 10.7238 8.59847C10.7056 8.73655 10.6515 8.86743 10.5668 8.97799C10.4984 9.06192 10.4114 9.12881 10.3127 9.17337C10.214 9.21794 10.1063 9.23896 9.99803 9.23479V9.23399ZM9.99803 6.18199H3.89563C3.75301 6.17195 3.61579 6.12338 3.49862 6.04146C3.38144 5.95954 3.28871 5.84734 3.23031 5.71683C3.17192 5.58633 3.15005 5.44242 3.16705 5.30046C3.18405 5.1585 3.23928 5.02382 3.32683 4.91079C3.39535 4.82711 3.48244 4.76054 3.58117 4.71638C3.67991 4.67222 3.78757 4.65168 3.89563 4.65639H10.0412C10.1561 4.65832 10.2685 4.69061 10.3668 4.74999C10.4741 4.81723 10.5636 4.9092 10.628 5.01819C10.6924 5.12717 10.7297 5.24999 10.7368 5.37637C10.7439 5.50274 10.7207 5.62899 10.669 5.74452C10.6173 5.86005 10.5386 5.96151 10.4396 6.04039C10.3461 6.10643 10.2389 6.15071 10.126 6.16999C10.0839 6.1765 10.0414 6.17998 9.99883 6.18039L9.99803 6.18199Z" fill="#B1B5C4"/>
</svg>
