<svg width="23" height="16" viewBox="0 0 23 16" fill="none" xmlns="http://www.w3.org/2000/svg">
<path d="M19.5102 6.70403C20.2399 6.70403 20.9396 6.41417 21.4556 5.89822C21.9715 5.38227 22.2614 4.68249 22.2614 3.95283C22.2616 3.5914 22.1906 3.23348 22.0524 2.8995C21.9143 2.56553 21.7117 2.26205 21.4562 2.0064C21.2007 1.75076 20.8973 1.54797 20.5634 1.40961C20.2295 1.27124 19.8716 1.20003 19.5102 1.20003C18.7805 1.20003 18.0808 1.48989 17.5648 2.00584C17.0489 2.52179 16.759 3.22157 16.759 3.95123C16.7588 4.31266 16.8298 4.67059 16.968 5.00456C17.1061 5.33854 17.3088 5.64202 17.5642 5.89766C17.8197 6.1533 18.1231 6.35609 18.457 6.49446C18.7909 6.63282 19.1488 6.70403 19.5102 6.70403ZM19.5102 2.85203C19.8019 2.85288 20.0814 2.96912 20.2877 3.17538C20.4939 3.38164 20.6102 3.66114 20.611 3.95283C20.6102 4.24452 20.4939 4.52402 20.2877 4.73028C20.0814 4.93654 19.8019 5.05279 19.5102 5.05363C19.2185 5.05279 18.939 4.93654 18.7328 4.73028C18.5265 4.52402 18.4102 4.24452 18.4094 3.95283C18.4102 3.66114 18.5265 3.38164 18.7328 3.17538C18.939 2.96912 19.2185 2.85288 19.5102 2.85203ZM4.1014 6.70403C4.46283 6.70414 4.82074 6.63303 5.15467 6.49476C5.48861 6.3565 5.79203 6.15379 6.0476 5.89822C6.30316 5.64266 6.50587 5.33924 6.64414 5.0053C6.7824 4.67136 6.85351 4.31346 6.8534 3.95203C6.85351 3.5906 6.7824 3.2327 6.64414 2.89876C6.50587 2.56483 6.30316 2.26141 6.0476 2.00584C5.79203 1.75027 5.48861 1.54756 5.15467 1.4093C4.82074 1.27104 4.46283 1.19993 4.1014 1.20003C3.74004 1.20003 3.38222 1.27122 3.04838 1.40953C2.71454 1.54784 2.41121 1.75056 2.15573 2.00612C1.90025 2.26168 1.69761 2.56506 1.5594 2.89895C1.42118 3.23283 1.3501 3.59067 1.3502 3.95203C1.3501 4.31339 1.42118 4.67123 1.5594 5.00512C1.69761 5.339 1.90025 5.64238 2.15573 5.89794C2.41121 6.1535 2.71454 6.35622 3.04838 6.49453C3.38222 6.63284 3.74004 6.70403 4.1014 6.70403ZM4.1014 2.85203C4.39254 2.85351 4.67131 2.96992 4.87703 3.17594C5.08274 3.38196 5.19875 3.66089 5.1998 3.95203C5.19896 4.24372 5.08271 4.52322 4.87646 4.72948C4.6702 4.93574 4.3907 5.05199 4.099 5.05283C3.80787 5.05114 3.52919 4.93453 3.32362 4.72836C3.11805 4.52219 3.00224 4.24317 3.0014 3.95203C3.00246 3.66062 3.11869 3.38144 3.32475 3.17538C3.53081 2.96932 3.80999 2.85309 4.1014 2.85203ZM17.7358 10.1056C17.2498 9.43137 16.562 8.92905 15.7718 8.67121C14.9817 8.41338 14.13 8.41339 13.3398 8.67123C12.8414 8.82348 12.3233 8.90113 11.8022 8.90163C11.2811 8.90113 10.763 8.82348 10.2646 8.67123C9.47448 8.41275 8.6226 8.41243 7.83228 8.67031C7.04196 8.92818 6.35422 9.43088 5.8686 10.1056C5.42922 10.7603 5.19625 11.5316 5.1998 12.32V13.8608C5.20065 14.2981 5.37488 14.7171 5.68428 15.0261C5.99367 15.335 6.41297 15.5086 6.8502 15.5088H16.7518C17.1892 15.508 17.6083 15.3336 17.9173 15.0241C18.2263 14.7145 18.3998 14.295 18.3998 13.8576V12.32C18.4084 11.5316 18.1768 10.7592 17.7358 10.1056ZM16.759 13.8576H6.8534V12.32C6.85541 11.7183 7.09116 11.1408 7.5109 10.7096C7.93063 10.2784 8.5015 10.0271 9.103 10.0088C9.95872 10.3695 10.8776 10.5566 11.8062 10.5592C12.7348 10.5566 13.6537 10.3695 14.5094 10.0088C15.1113 10.0259 15.6829 10.2768 16.1029 10.7083C16.5228 11.1398 16.7582 11.7179 16.759 12.32V13.8576ZM19.9198 7.80483H19.0982C18.5246 7.80489 17.9642 7.97621 17.4886 8.29683C17.9515 8.6408 18.3517 9.06188 18.6718 9.54163C18.8069 9.48884 18.95 9.45987 19.095 9.45603H19.9198C20.248 9.45688 20.5625 9.58762 20.7946 9.81968C21.0266 10.0517 21.1574 10.3662 21.1582 10.6944C21.1588 10.9132 21.246 11.1228 21.4007 11.2775C21.5554 11.4322 21.765 11.5194 21.9838 11.52C22.2026 11.5194 22.4122 11.4322 22.5669 11.2775C22.7216 11.1228 22.8088 10.9132 22.8094 10.6944C22.8097 10.3149 22.7352 9.93899 22.5901 9.58826C22.445 9.23754 22.2322 8.91885 21.9638 8.65043C21.6954 8.38208 21.3767 8.16927 21.026 8.02418C20.6752 7.87909 20.2994 7.80455 19.9198 7.80483ZM11.803 7.80483C12.3089 7.80504 12.8099 7.70555 13.2774 7.51204C13.7448 7.31854 14.1695 7.03481 14.5272 6.67708C14.885 6.31934 15.1687 5.89462 15.3622 5.42718C15.5557 4.95974 15.6552 4.45874 15.655 3.95283C15.6552 3.44692 15.5557 2.94593 15.3622 2.47849C15.1687 2.01104 14.885 1.58632 14.5272 1.22859C14.1695 0.870853 13.7448 0.587126 13.2774 0.393619C12.8099 0.200112 12.3089 0.10062 11.803 0.10083C10.782 0.101255 9.80288 0.507219 9.08111 1.22944C8.35934 1.95165 7.95399 2.93098 7.9542 3.95203C7.95385 4.458 8.05322 4.95907 8.24663 5.42661C8.44004 5.89415 8.72371 6.31899 9.08141 6.67683C9.43918 7.03467 9.86399 7.31849 10.3315 7.51204C10.7991 7.70559 11.3002 7.80508 11.8062 7.80483H11.803ZM11.803 1.75123C12.3872 1.75081 12.9476 1.98241 13.3611 2.39512C13.7745 2.80783 14.0072 3.36785 14.0078 3.95203C14.0074 4.5358 13.7753 5.09554 13.3625 5.50833C12.9497 5.92112 12.39 6.15321 11.8062 6.15363C11.2224 6.15321 10.6627 5.92112 10.2499 5.50833C9.83712 5.09554 9.60503 4.5358 9.6046 3.95203C9.60524 3.3684 9.83742 2.80887 10.2502 2.39625C10.663 1.98363 11.2226 1.75165 11.8062 1.75123H11.803ZM6.123 8.29683C5.64743 7.97621 5.08696 7.80489 4.5134 7.80483H3.6886C2.92284 7.8061 2.1888 8.11086 1.64732 8.65234C1.10584 9.19382 0.801074 9.92786 0.799805 10.6936C0.800227 10.9125 0.88732 11.1224 1.04204 11.2772C1.19675 11.4321 1.4065 11.5194 1.6254 11.52C1.84417 11.5194 2.0538 11.4322 2.20849 11.2775C2.36319 11.1228 2.45037 10.9132 2.451 10.6944C2.45185 10.3662 2.58259 10.0517 2.81466 9.81968C3.04672 9.58762 3.36122 9.45688 3.6894 9.45603H4.5142C4.65924 9.45918 4.80255 9.48816 4.9374 9.54163C5.25955 9.0623 5.66072 8.64112 6.1238 8.29603L6.123 8.29683Z" fill="#FCFCFD"/>
</svg>
