<svg width="20" height="20" viewBox="0 0 20 20" fill="none" xmlns="http://www.w3.org/2000/svg">
<g clip-path="url(#clip0_512_22328)">
<path fill-rule="evenodd" clip-rule="evenodd" d="M9.7074 0.886311C9.89605 0.815566 10.1039 0.815566 10.2926 0.886311L16.9593 3.38631C17.2845 3.50828 17.5 3.81921 17.5 4.16659V9.99992C17.5 12.8719 15.5985 15.1668 13.8821 16.6687C13.0064 17.435 12.1345 18.0339 11.4833 18.441C11.1569 18.645 10.8836 18.8022 10.6901 18.9093C10.5932 18.9629 10.5162 19.0041 10.4622 19.0324C10.4352 19.0466 10.414 19.0576 10.399 19.0653L10.381 19.0744L10.3756 19.0771L10.3739 19.078C10.3736 19.0782 10.3727 19.0786 10 18.3333C9.62732 19.0786 9.62708 19.0785 9.62681 19.0784L9.62435 19.0771L9.61895 19.0744L9.60104 19.0653C9.58598 19.0576 9.56475 19.0466 9.53777 19.0324C9.48381 19.0041 9.40677 18.9629 9.30994 18.9093C9.1164 18.8022 8.84314 18.645 8.51667 18.441C7.86545 18.0339 6.99365 17.435 6.11791 16.6687C4.40146 15.1668 2.5 12.8719 2.5 9.99992V4.16659C2.5 3.81921 2.71548 3.50828 3.04073 3.38631L9.7074 0.886311ZM10 18.3333L9.62681 19.0784C9.86141 19.1957 10.1381 19.1959 10.3727 19.0786L10 18.3333ZM10 17.3855C10.1597 17.295 10.3639 17.1752 10.6 17.0276C11.1988 16.6534 11.9936 16.1065 12.7846 15.4144C14.4015 13.9997 15.8333 12.1279 15.8333 9.99992V4.74409L10 2.55659L4.16667 4.74409V9.99992C4.16667 12.1279 5.59855 13.9997 7.21542 15.4144C8.00635 16.1065 8.80121 16.6534 9.4 17.0276C9.63608 17.1752 9.8403 17.295 10 17.3855Z" fill="#23262F"/>
<g filter="url(#filter0_d_512_22328)">
<rect width="4.28807" height="1.56978" rx="0.784888" transform="matrix(0.620143 0.784489 -0.710787 0.703408 7.7832 8.28223)" fill="#23262F"/>
</g>
<rect width="6.84336" height="1.59095" rx="0.795474" transform="matrix(-0.709065 0.705143 -0.622008 -0.783011 14.167 7.9126)" fill="#23262F"/>
</g>
<defs>
<filter id="filter0_d_512_22328" x="2.97168" y="8.62305" width="11.166" height="11.7866" filterUnits="userSpaceOnUse" color-interpolation-filters="sRGB">
<feFlood flood-opacity="0" result="BackgroundImageFix"/>
<feColorMatrix in="SourceAlpha" type="matrix" values="0 0 0 0 0 0 0 0 0 0 0 0 0 0 0 0 0 0 127 0" result="hardAlpha"/>
<feOffset dy="4"/>
<feGaussianBlur stdDeviation="2"/>
<feComposite in2="hardAlpha" operator="out"/>
<feColorMatrix type="matrix" values="0 0 0 0 0 0 0 0 0 0 0 0 0 0 0 0 0 0 0.25 0"/>
<feBlend mode="normal" in2="BackgroundImageFix" result="effect1_dropShadow_512_22328"/>
<feBlend mode="normal" in="SourceGraphic" in2="effect1_dropShadow_512_22328" result="shape"/>
</filter>
<clipPath id="clip0_512_22328">
<rect width="20" height="20" fill="white"/>
</clipPath>
</defs>
</svg>
