<svg width="24" height="25" viewBox="0 0 24 25" fill="none" xmlns="http://www.w3.org/2000/svg">
<g clip-path="url(#clip0_3299_9644)">
<path d="M21.3333 3.83325H2.66667C1.95942 3.83325 1.28115 4.1142 0.781049 4.6143C0.280952 5.1144 0 5.79267 0 6.49992L0 18.4999C0 19.2072 0.280952 19.8854 0.781049 20.3855C1.28115 20.8856 1.95942 21.1666 2.66667 21.1666H21.3333C22.0406 21.1666 22.7189 20.8856 23.219 20.3855C23.719 19.8854 24 19.2072 24 18.4999V6.49992C24 5.79267 23.719 5.1144 23.219 4.6143C22.7189 4.1142 22.0406 3.83325 21.3333 3.83325Z" fill="#DA251D"/>
<path d="M13.1685 11.1914L11.9998 7.59473L10.8311 11.1914H7.0498L10.1091 13.4134L8.94047 17.0101L11.9998 14.7874L15.0591 17.0101L13.8905 13.4134L16.9498 11.1914H13.1685Z" fill="#FFFF00"/>
</g>
<defs>
<clipPath id="clip0_3299_9644">
<rect width="24" height="24" fill="white" transform="translate(0 0.5)"/>
</clipPath>
</defs>
</svg>
